_________________________  Visit us at _________________________
  
http://p2pdl.com  ____________________________  http://p2pdl.com


Warm Bodies 2013 WEBRip 480p x264 AAC - VYTO


Genre: Comedy | Horror | Romance
Plot: After R (a highly unusual zombie) saves Julie from an attack, the two form a relationship that
sets in motion a sequence of events that might transform the entire lifeless world.   
Director: Jonathan Levine
Stars: Nicholas Hoult, Teresa Palmer, Analeigh Tipton.
Rated: PG-13 for zombie violence and some language.


Info: 
http://www.imdb.com/title/tt1588173/

Trailer:


Format                         : MPEG-4
File size                      : 302 MiB
Duration                       : 1h 37mn
Overall bit rate mode          : Variable
Overall bit rate               : 432 Kbps
Source                         : 720p.WEB-DL.H264-HDWinG

Video
Format                         : AVC
Bit rate                       : 389 Kbps
Width                          : 720 pixels
Height                         : 304 pixels
Display aspect ratio           : 2.35:1
Frame rate mode                : Constant
Frame rate                     : 23.976 fps
Stream size                    : 272 MiB (90%)
Writing library                : x264 core 130 r2273

Audio
Format                         : AAC
Bit rate mode                  : Variable
Bit rate                       : 40.0 Kbps
Channel(s)                     : 2 channels
Channel positions              : Front: L R
Sampling rate                  : 44.1 KHz
Stream size                    : 28.0 MiB (9%)
Language                       : English

Subtitle                       : Yes(English)
 
http://www.ultraimg.com/images/m4RFw.png 
http://www.ultraimg.com/images/lzQJG.png 
http://www.ultraimg.com/images/QTtis.png 
http://www.ultraimg.com/images/UyrAT.png 
http://www.ultraimg.com/images/Xc3p9.png 
http://www.ultraimg.com/images/yg91.png

----------------------------------------------------------------------------------------------------


Encoded using revolutionary 10bit encoding, which enables us to provide you more crispier 
and sharper images at small sizes, just make sure you follow our instructions without a fault.
Recommend to you to use latest version of VLC player. Install K-Lite Codec Pack or shark007 codecs
in case of any kind of problem in playback (For non-VLC Media Player users). Alternatively, install
Core AVC codecs, the fastest decoder that there is coupled with Community Center Codec Pack and play
on Windows Media Player Classic. Check sample to be sure.
Enjoy!

Encoder Notes:Looking For Early Access To Anything You Can Provide DVDScr, R5, DVDR, BluRay, Direct
Audio, Music Releases and Seedboxes. We require dedicated servers, so as to do more 
and fast releases of movies.
If You Got anything to offer please contact us at "contact@p2pdl.com".

Face book Fan Page:   
http://www.fb.me/p2pdl